<svg width="26" height="63" viewBox="0 0 26 63" fill="none" xmlns="http://www.w3.org/2000/svg">
<g clip-path="url(#clip0_7777_147)">
<path d="M8.17649 20C17.9878 20 23.3542 12.3048 23.3542 5.63143C23.3542 5.41288 23.3542 5.1953 23.3387 4.97868C24.3826 4.26377 25.2838 3.37868 26 2.36471C25.0265 2.7731 23.9936 3.04087 22.9362 3.15923C24.0495 2.5283 24.8833 1.53519 25.2813 0.366035C24.2343 0.954219 23.0886 1.36881 21.8941 1.59182C20.8855 0.576454 19.4768 0 18.0046 0C15.0754 0 12.6652 2.28178 12.6652 5.05468C12.6652 5.43937 12.7116 5.82286 12.8034 6.19755C8.51657 5.99414 4.51694 4.07455 1.80959 0.921337C0.40173 3.21571 1.13019 6.18908 3.4611 7.66255C2.61229 7.63875 1.78171 7.42194 1.04 7.03047V7.09446C1.04071 9.48921 2.84004 11.5707 5.31959 12.0448C4.53431 12.2476 3.71018 12.2772 2.91098 12.1315C3.60806 14.1835 5.61818 15.598 7.89466 15.6384C6.0061 17.0435 3.67184 17.8067 1.26984 17.8045C0.845406 17.8037 0.421383 17.7794 0 17.7316C2.43923 19.2135 5.2782 19.9997 8.17649 19.9961" fill="white" fill-opacity="0.5"/>
<path d="M10 21C7.28416 21 6.94362 21.0115 5.87701 21.0602C4.81263 21.1088 4.08569 21.2778 3.44958 21.525C2.79199 21.7806 2.23432 22.1225 1.67839 22.6784C1.12246 23.2344 0.780524 23.792 0.524967 24.4496C0.277746 25.0857 0.108725 25.8126 0.060138 26.877C0.0114719 27.9436 0 28.2842 0 31C0 33.7158 0.0114719 34.0564 0.060138 35.123C0.108725 36.1874 0.277746 36.9143 0.524967 37.5504C0.780524 38.208 1.12246 38.7656 1.67839 39.3216C2.23432 39.8775 2.79199 40.2195 3.44958 40.475C4.08569 40.7222 4.81263 40.8913 5.87701 40.9398C6.94362 40.9885 7.28416 41 10 41C12.7158 41 13.0564 40.9885 14.123 40.9398C15.1874 40.8913 15.9143 40.7222 16.5504 40.475C17.208 40.2195 17.7656 39.8775 18.3216 39.3216C18.8775 38.7656 19.2195 38.208 19.475 37.5504C19.7222 36.9143 19.8913 36.1874 19.9398 35.123C19.9885 34.0564 20 33.7158 20 31C20 28.2842 19.9885 27.9436 19.9398 26.877C19.8913 25.8126 19.7222 25.0857 19.475 24.4496C19.2195 23.792 18.8775 23.2344 18.3216 22.6784C17.7656 22.1225 17.208 21.7806 16.5504 21.525C15.9143 21.2778 15.1874 21.1088 14.123 21.0602C13.0564 21.0115 12.7158 21 10 21ZM10 22.8018C12.6701 22.8018 12.9864 22.812 14.0409 22.8601C15.0158 22.9046 15.5453 23.0675 15.8977 23.2044C16.3645 23.3858 16.6976 23.6026 17.0475 23.9525C17.3975 24.3024 17.6142 24.6356 17.7956 25.1023C17.9325 25.4547 18.0954 25.9842 18.1399 26.9591C18.188 28.0136 18.1982 28.3299 18.1982 31C18.1982 33.6701 18.188 33.9864 18.1399 35.0409C18.0954 36.0158 17.9325 36.5453 17.7956 36.8977C17.6142 37.3645 17.3975 37.6976 17.0475 38.0475C16.6976 38.3975 16.3645 38.6142 15.8977 38.7956C15.5453 38.9325 15.0158 39.0954 14.0409 39.1399C12.9866 39.188 12.6703 39.1982 10 39.1982C7.32969 39.1982 7.01348 39.188 5.95914 39.1399C4.98415 39.0954 4.45466 38.9325 4.10229 38.7956C3.63551 38.6142 3.30239 38.3975 2.95244 38.0475C2.60253 37.6976 2.38579 37.3645 2.20443 36.8977C2.06748 36.5453 1.90457 36.0158 1.86007 35.0409C1.81196 33.9864 1.8018 33.6701 1.8018 31C1.8018 28.3299 1.81196 28.0136 1.86007 26.9591C1.90457 25.9842 2.06748 25.4547 2.20443 25.1023C2.38579 24.6356 2.60253 24.3024 2.95244 23.9525C3.30239 23.6026 3.63551 23.3858 4.10229 23.2044C4.45466 23.0675 4.98415 22.9046 5.95914 22.8601C7.0136 22.812 7.32989 22.8018 10 22.8018Z" fill="white" fill-opacity="0.5"/>
<path d="M10.0004 34.3332C8.15941 34.3332 6.66703 32.8408 6.66703 30.9999C6.66703 29.1589 8.15941 27.6665 10.0004 27.6665C11.8413 27.6665 13.3337 29.1589 13.3337 30.9999C13.3337 32.8408 11.8413 34.3332 10.0004 34.3332ZM10.0004 25.8647C7.16429 25.8647 4.86523 28.1638 4.86523 30.9999C4.86523 33.836 7.16429 36.135 10.0004 36.135C12.8364 36.135 15.1355 33.836 15.1355 30.9999C15.1355 28.1638 12.8364 25.8647 10.0004 25.8647Z" fill="white" fill-opacity="0.5"/>
<path d="M16.5387 25.6619C16.5387 26.3246 16.0014 26.8619 15.3387 26.8619C14.6759 26.8619 14.1387 26.3246 14.1387 25.6619C14.1387 24.9991 14.6759 24.4619 15.3387 24.4619C16.0014 24.4619 16.5387 24.9991 16.5387 25.6619Z" fill="white" fill-opacity="0.5"/>
<path d="M17.2137 54.165L17.8356 50.5728H13.9452V48.2417C13.9452 47.2589 14.4886 46.301 16.2312 46.301H18V43.2427C18 43.2427 16.3947 43 14.86 43C11.6558 43 9.56166 44.7204 9.56166 47.835V50.5728H6V54.165H9.56166V62.849C10.2758 62.9483 11.0078 63 11.7535 63C12.4991 63 13.231 62.9483 13.9452 62.849V54.165H17.2137Z" fill="white" fill-opacity="0.5"/>
</g>
<defs>
<clipPath id="clip0_7777_147">
<rect width="26" height="63" fill="white"/>
</clipPath>
</defs>
</svg>
